# Blender v3.0.1 OBJ File: ''
# www.blender.org
mtllib greenProfessor.mtl
o Cubo_Cubo.002
v 0.589833 -0.000000 0.029620
v 0.584296 -2.000000 0.032602
v 0.584296 -0.000000 0.032602
v -0.836852 -0.000000 0.215131
v -0.978038 -2.000000 0.319431
v -0.978038 -0.000000 0.319431
v -0.985427 0.000000 -0.886449
v -0.964766 -2.000000 -0.890206
v -0.964766 0.000000 -0.890206
v 0.596649 -0.000000 0.027917
v 0.589833 -2.000000 0.029620
v -0.617935 -0.000000 0.047180
v -0.836852 -2.000000 0.215131
v -1.001097 0.000000 -0.878614
v -0.985427 -2.000000 -0.886449
v 0.602187 -0.000000 0.029194
v 0.596649 -2.000000 0.027917
v -0.604219 -0.000000 0.034164
v -0.617935 -2.000000 0.047180
v -1.018508 0.000000 -0.868168
v -1.001097 -2.000000 -0.878614
v 0.608576 -0.000000 0.032602
v 0.602187 -2.000000 0.029194
v -0.596859 -0.000000 0.028643
v -0.604219 -2.000000 0.034164
v -1.034178 0.000000 -0.857721
v -1.018508 -2.000000 -0.868168
v 0.613688 -0.000000 0.036862
v 0.608576 -2.000000 0.032602
v -0.590111 -0.000000 0.028030
v -0.596859 -2.000000 0.028643
v -1.052460 0.000000 -0.842051
v -1.034178 -2.000000 -0.857721
v 1.046399 -0.000000 0.357365
v 0.613688 -2.000000 0.036862
v -0.583977 -0.000000 0.032324
v -0.590111 -2.000000 0.028030
v -1.064648 0.000000 -0.829863
v -1.052460 -2.000000 -0.842051
v 1.276057 -0.000000 0.520775
v 1.046399 -2.000000 0.357365
v -0.574163 -0.000000 0.044592
v -0.583977 -2.000000 0.032324
v -1.079447 0.000000 -0.814193
v -1.064648 -2.000000 -0.829863
v 1.290357 -0.000000 0.530317
v 1.276057 -2.000000 0.520775
v -0.438371 -0.000000 0.270348
v -0.574163 -2.000000 0.044592
v -1.095117 0.000000 -0.793300
v -1.079447 -2.000000 -0.814193
v 1.306204 -0.000000 0.536452
v 1.290357 -2.000000 0.530317
v -0.279378 -0.000000 0.526857
v -0.438371 -2.000000 0.270348
v -1.107305 0.000000 -0.772406
v -1.095117 -2.000000 -0.793300
v 1.320516 -0.000000 0.540030
v 1.306204 -2.000000 0.536452
v -0.165962 -0.000000 0.707050
v -0.279378 -2.000000 0.526857
v -1.119493 0.000000 -0.748901
v -1.107305 -2.000000 -0.772406
v 1.332273 -0.000000 0.540030
v 1.320516 -2.000000 0.540030
v -0.070566 -0.000000 0.845905
v -0.165962 -2.000000 0.707050
v -1.175209 0.000000 -0.590459
v -1.119493 -2.000000 -0.748901
v 1.347097 -0.000000 0.534407
v 1.332273 -2.000000 0.540030
v -0.053646 -0.000000 0.863033
v -0.070566 -2.000000 0.845905
v -1.260524 0.000000 -0.229177
v -1.175209 -2.000000 -0.590459
v 1.353742 -0.000000 0.524695
v 1.347097 -2.000000 0.534407
v -0.035244 -0.000000 0.878982
v -0.053646 -2.000000 0.863033
v -1.317111 -0.000000 0.107729
v -1.260524 -2.000000 -0.229177
v 1.358854 -0.000000 0.513960
v 1.353742 -2.000000 0.524695
v -0.020522 -0.000000 0.889410
v -0.035244 -2.000000 0.878982
v -1.354545 -0.000000 0.433318
v -1.317111 -2.000000 0.107729
v 1.361410 -0.000000 0.502714
v 1.358854 -2.000000 0.513960
v -0.006414 -0.000000 0.895544
v -0.020522 -2.000000 0.889410
v -1.355415 -0.000000 0.467270
v -1.354545 -2.000000 0.433318
v 1.362943 -0.000000 0.491980
v 1.361410 -2.000000 0.502714
v 0.012602 -0.000000 0.896771
v -0.006414 -2.000000 0.895544
v -1.353674 -0.000000 0.502962
v -1.355415 -2.000000 0.467270
v 1.322872 -0.000000 0.171872
v 1.362943 -2.000000 0.491980
v 0.029164 -0.000000 0.891250
v 0.012602 -2.000000 0.896771
v -1.346710 -0.000000 0.522985
v -1.353674 -2.000000 0.502962
v 1.279025 0.000000 -0.075399
v 1.322872 -2.000000 0.171872
v 0.042045 -0.000000 0.881436
v 0.029164 -2.000000 0.891250
v -1.337133 -0.000000 0.536044
v -1.346710 -2.000000 0.522985
v 1.201436 0.000000 -0.421369
v 1.279025 -2.000000 -0.075399
v 0.053086 -0.000000 0.867941
v 0.042045 -2.000000 0.881436
v -1.234118 0.000000 -2.158478
v 1.237739 -2.000000 -2.156681
v 1.237739 0.000000 -2.156681
v -1.324994 -0.000000 0.544396
v -1.337133 -2.000000 0.536044
v 1.114943 0.000000 -0.740629
v 1.201436 -2.000000 -0.421369
v 0.114136 -0.000000 0.785996
v 0.053086 -2.000000 0.867941
v -2.489136 -0.000000 0.004286
v -1.234118 -2.000000 -2.158478
v -1.313239 -0.000000 0.546915
v -1.324994 -2.000000 0.544396
v 1.104173 0.000000 -0.770193
v 1.114943 -2.000000 -0.740629
v 0.192750 -0.000000 0.670284
v 0.114136 -2.000000 0.785996
v -1.238514 -0.000000 2.160456
v -2.489136 -2.000000 0.004286
v -1.302385 -2.000000 0.544566
v -1.302385 -0.000000 0.544566
v 1.080618 0.000000 -0.814358
v 1.104173 -2.000000 -0.770193
v 0.300512 -0.000000 0.493625
v 0.192750 -2.000000 0.670284
v 1.239513 -2.000000 2.158804
v 1.239513 -0.000000 2.158804
v 1.057800 0.000000 -0.845273
v 1.080618 -2.000000 -0.814358
v 0.501904 -0.000000 0.170337
v 0.300512 -2.000000 0.493625
v 2.484779 -2.000000 0.006485
v 2.484779 -0.000000 0.006485
v 1.026884 0.000000 -0.870300
v 1.057800 -2.000000 -0.845273
v 0.575218 -0.000000 0.047559
v 0.501904 -2.000000 0.170337
v 0.980511 0.000000 -0.889438
v 1.026884 -2.000000 -0.870300
v 0.580462 -0.000000 0.038566
v 0.575218 -2.000000 0.047559
v -1.125584 -0.000000 0.428818
v 0.932666 0.000000 -0.890174
v 0.980511 -2.000000 -0.889438
v 0.580462 -2.000000 0.038566
v -1.125584 -2.000000 0.428818
v 0.932666 -2.000000 -0.890174
v -1.238514 -2.000000 2.160456
v -1.313239 -2.000000 0.546915
vt 0.000000 0.000000
vt 0.000000 0.000000
vt 0.000000 0.000000
vt 0.000000 0.000000
vt 0.000000 0.000000
vt 0.000000 0.000000
vt 0.000000 0.000000
vt 0.000000 0.000000
vt 0.000000 0.000000
vt 0.000000 0.000000
vt 0.000000 0.000000
vt 0.000000 0.000000
vt 0.000000 0.000000
vt 0.000000 0.000000
vt 0.000000 0.000000
vt 0.000000 0.000000
vt 0.000000 0.000000
vt 0.000000 0.000000
vt 0.000000 0.000000
vt 0.000000 0.000000
vt 0.000000 0.000000
vt 0.000000 0.000000
vt 0.000000 0.000000
vt 0.000000 0.000000
vt 0.000000 0.000000
vt 0.000000 0.000000
vt 0.000000 0.000000
vt 0.000000 0.000000
vt 0.000000 0.000000
vt 0.000000 0.000000
vt 0.000000 0.000000
vt 0.000000 0.000000
vt 0.000000 0.000000
vt 0.000000 0.000000
vt 0.000000 0.000000
vt 0.000000 0.000000
vt 0.000000 0.000000
vt 0.000000 0.000000
vt 0.000000 0.000000
vt 0.000000 0.000000
vt 0.000000 0.000000
vt 0.000000 0.000000
vt 0.000000 0.000000
vt 0.000000 0.000000
vt 0.000000 0.000000
vt 0.000000 0.000000
vt 0.000000 0.000000
vt 0.000000 0.000000
vt 0.000000 0.000000
vt 0.000000 0.000000
vt 0.000000 0.000000
vt 0.000000 0.000000
vt 0.000000 0.000000
vt 0.000000 0.000000
vt 0.000000 0.000000
vt 0.000000 0.000000
vt 0.000000 0.000000
vt 0.000000 0.000000
vt 0.000000 0.000000
vt 0.000000 0.000000
vt 0.000000 0.000000
vt 0.000000 0.000000
vt 0.000000 0.000000
vt 0.000000 0.000000
vt 0.000000 0.000000
vt 0.000000 0.000000
vt 0.000000 0.000000
vt 0.000000 0.000000
vt 0.000000 0.000000
vt 0.000000 0.000000
vt 0.000000 0.000000
vt 0.000000 0.000000
vt 0.000000 0.000000
vt 0.000000 0.000000
vt 0.000000 0.000000
vt 0.000000 0.000000
vt 0.000000 0.000000
vt 0.000000 0.000000
vt 0.000000 0.000000
vt 0.000000 0.000000
vt 0.000000 0.000000
vt 0.000000 0.000000
vt 0.000000 0.000000
vt 0.000000 0.000000
vt 0.000000 0.000000
vt 0.000000 0.000000
vt 0.000000 0.000000
vt 0.000000 0.000000
vt 0.000000 0.000000
vt 0.000000 0.000000
vt 0.000000 0.000000
vt 0.000000 0.000000
vt 0.000000 0.000000
vt 0.000000 0.000000
vt 0.000000 0.000000
vt 0.000000 0.000000
vt 0.000000 0.000000
vt 0.000000 0.000000
vt 0.000000 0.000000
vt 0.000000 0.000000
vt 0.000000 0.000000
vt 0.000000 0.000000
vt 0.000000 0.000000
vt 0.000000 0.000000
vt 0.000000 0.000000
vt 0.000000 0.000000
vt 0.000000 0.000000
vt 0.000000 0.000000
vt 0.000000 0.000000
vt 0.000000 0.000000
vt 0.000000 0.000000
vt 0.000000 0.000000
vt 0.000000 0.000000
vt 0.000000 0.000000
vt 0.000000 0.000000
vt 0.000000 0.000000
vt 0.000000 0.000000
vt 0.000000 0.000000
vt 0.000000 0.000000
vt 0.000000 0.000000
vt 0.000000 0.000000
vt 0.000000 0.000000
vt 0.000000 0.000000
vt 0.000000 0.000000
vt 0.000000 0.000000
vt 0.000000 0.000000
vt 0.000000 0.000000
vt 0.000000 0.000000
vt 0.000000 0.000000
vt 0.000000 0.000000
vt 0.000000 0.000000
vt 0.000000 0.000000
vt 0.000000 0.000000
vt 0.000000 0.000000
vt 0.000000 0.000000
vt 0.000000 0.000000
vt 0.000000 0.000000
vt 0.000000 0.000000
vt 0.000000 0.000000
vt 0.000000 0.000000
vt 0.000000 0.000000
vt 0.000000 0.000000
vt 0.000000 0.000000
vt 0.000000 0.000000
vt 0.000000 0.000000
vt 0.000000 0.000000
vt 0.000000 0.000000
vt 0.000000 0.000000
vt 0.000000 0.000000
vt 0.000000 0.000000
vt 0.000000 0.000000
vt 0.000000 0.000000
vt 0.000000 0.000000
vt 0.000000 0.000000
vt 0.000000 0.000000
vt 0.000000 0.000000
vt 0.000000 0.000000
vt 0.000000 0.000000
vt 0.000000 0.000000
vt 0.000000 0.000000
vt 0.000000 0.000000
vt 0.000000 0.000000
vt 0.000000 0.000000
vt 0.000000 0.000000
vn -0.4742 0.0000 -0.8804
vn -0.5942 0.0000 -0.8043
vn -0.5945 0.0001 -0.8041
vn -0.5941 0.0003 -0.8044
vn 0.1789 -0.0000 0.9839
vn -0.2424 0.0000 -0.9702
vn -0.6087 0.0000 -0.7934
vn 0.4472 -0.0000 0.8944
vn 0.2247 0.0000 -0.9744
vn -0.6884 0.0000 -0.7254
vn 0.5145 0.0000 0.8575
vn 0.4706 0.0000 -0.8823
vn -0.6001 0.0000 -0.7999
vn 0.5547 -0.0000 0.8320
vn 0.6402 0.0000 -0.7682
vn -0.0905 0.0000 -0.9959
vn 0.6508 -0.0000 0.7593
vn 0.5952 0.0000 -0.8036
vn 0.5735 0.0000 -0.8192
vn 0.7071 0.0000 0.7071
vn 0.5798 -0.0000 -0.8148
vn 0.7809 0.0000 -0.6247
vn 0.7270 0.0000 0.6866
vn 0.5550 0.0000 -0.8318
vn 0.8568 -0.0025 -0.5157
vn 0.8569 0.0000 -0.5154
vn 0.8000 0.0000 0.6000
vn 0.3610 0.0000 -0.9326
vn 0.8498 -0.0017 -0.5270
vn 0.8500 0.0028 -0.5268
vn 0.8513 0.0000 -0.5247
vn 0.8638 0.0000 0.5039
vn 0.2425 0.0000 -0.9701
vn 0.8463 0.0000 -0.5327
vn 0.8463 0.0015 -0.5327
vn 0.8472 0.0000 -0.5313
vn 0.8878 0.0000 0.4603
vn 0.0000 0.0000 -1.0000
vn 0.8242 0.0000 -0.5663
vn 0.9434 -0.0000 0.3317
vn -0.3547 0.0000 -0.9350
vn 0.7114 0.0000 -0.7028
vn 0.9732 0.0000 0.2298
vn -0.8253 -0.0000 -0.5647
vn 0.6549 0.0000 -0.7557
vn 0.9862 0.0000 0.1656
vn -0.9029 -0.0000 -0.4299
vn 0.5780 0.0000 -0.8160
vn 0.9935 0.0000 0.1142
vn -0.9751 0.0000 -0.2216
vn 0.3987 0.0000 -0.9171
vn 0.9997 -0.0000 0.0256
vn -0.9900 -0.0000 -0.1414
vn 0.0644 0.0000 -0.9979
vn 0.9988 -0.0000 -0.0487
vn -0.9923 0.0000 0.1242
vn -0.3162 0.0000 -0.9487
vn 0.9445 0.0000 -0.3285
vn -0.9846 0.0000 0.1746
vn -0.6060 0.0000 -0.7954
vn 0.8064 0.0000 -0.5914
vn -0.9758 -0.0000 0.2188
vn -0.7740 0.0000 -0.6332
vn 0.0007 0.0000 -1.0000
vn 0.5668 0.0000 -0.8238
vn -0.9652 -0.0000 0.2615
vn -0.8019 0.0000 -0.5974
vn -0.8649 0.0000 -0.5019
vn 0.2095 0.0000 -0.9778
vn -0.9396 0.0000 0.3423
vn -0.8272 0.0000 -0.5620
vn -0.8650 -0.0000 0.5017
vn -0.2115 0.0000 -0.9774
vn -0.8824 -0.0000 0.4706
vn -0.8525 -0.0009 -0.5227
vn -0.8537 0.0000 -0.5208
vn 0.0007 0.0000 1.0000
vn -0.8046 -0.0000 0.5938
vn -0.8488 0.0000 -0.5287
vn -0.8500 -0.0003 -0.5268
vn -0.8484 0.0024 -0.5293
vn 0.8656 -0.0000 0.5008
vn -0.6292 -0.0000 0.7772
vn -0.8587 -0.0028 -0.5125
vn -0.8586 -0.0000 -0.5127
vn 0.8663 0.0000 -0.4994
vn -0.3815 0.0000 0.9244
vn -0.8639 0.0000 -0.5037
vn -0.8639 0.0029 -0.5037
vn -0.8625 0.0000 -0.5061
vn -0.5477 0.0000 -0.8367
vn -0.0154 -0.0000 0.9999
vn -0.8412 0.0000 -0.5408
vn -0.5953 -0.0002 -0.8035
vn -0.5956 0.0000 -0.8033
vn -0.0000 -0.0000 1.0000
vn -0.0000 -1.0000 0.0000
vn -0.0025 1.0000 0.0002
vn -0.0000 1.0000 0.0003
vn -0.0009 1.0000 -0.0014
vn 0.0000 1.0000 0.0000
vn -0.5944 0.0002 -0.8041
vn 0.8569 -0.0025 -0.5154
vn 0.8555 0.0000 -0.5179
vn 0.8500 -0.0017 -0.5268
vn 0.8492 0.0000 -0.5281
vn 0.8502 0.0028 -0.5265
vn 0.8464 0.0015 -0.5325
vn -0.8524 0.0003 -0.5229
vn -0.8540 -0.0023 -0.5202
vn -0.8499 0.0009 -0.5269
vn -0.8586 -0.0028 -0.5127
vn -0.8601 0.0000 -0.5102
vn -0.8638 0.0029 -0.5037
vn -0.5477 0.0000 -0.8366
vn -0.5953 -0.0001 -0.8035
vn -0.5957 -0.0003 -0.8032
vn -0.0028 -1.0000 0.0003
vn -0.0001 -1.0000 -0.0004
vn 0.0003 -1.0000 -0.0002
vn -0.0015 -1.0000 -0.0002
vn 0.0007 -1.0000 -0.0023
vn 0.0015 -1.0000 -0.0025
vn -0.0018 -1.0000 -0.0022
vn -0.0028 -1.0000 -0.0004
vn -0.0019 -1.0000 -0.0014
vn 0.0028 -1.0000 -0.0008
vn -0.0014 -1.0000 -0.0004
vn 0.0001 -1.0000 -0.0004
vn 0.0015 -1.0000 0.0024
vn 0.0008 -1.0000 0.0013
vn -0.0025 1.0000 -0.0002
vn -0.0014 1.0000 0.0024
vn 0.0027 1.0000 -0.0007
vn 0.0007 1.0000 0.0024
vn -0.0016 1.0000 -0.0005
vn -0.0003 1.0000 -0.0001
vn 0.0001 1.0000 0.0003
vn -0.0025 1.0000 -0.0003
vn -0.0013 1.0000 -0.0021
vn -0.0016 1.0000 -0.0019
vn -0.0017 1.0000 -0.0002
usemtl None.001
s off
f 1/1/1 2/2/1 3/3/1
f 4/4/2 5/5/3 6/6/4
f 7/7/5 8/8/5 9/9/5
f 10/10/6 11/11/6 1/1/6
f 12/12/7 13/13/7 4/4/7
f 14/14/8 15/15/8 7/7/8
f 16/16/9 17/17/9 10/10/9
f 18/18/10 19/19/10 12/12/10
f 20/20/11 21/21/11 14/14/11
f 22/22/12 23/23/12 16/16/12
f 24/24/13 25/25/13 18/18/13
f 26/26/14 27/27/14 20/20/14
f 28/28/15 29/29/15 22/22/15
f 30/30/16 31/31/16 24/24/16
f 32/32/17 33/33/17 26/26/17
f 34/34/18 35/35/18 28/28/18
f 36/36/19 37/37/19 30/30/19
f 38/38/20 39/39/20 32/32/20
f 40/40/21 41/41/21 34/34/21
f 42/42/22 43/43/22 36/36/22
f 44/44/23 45/45/23 38/38/23
f 46/46/24 47/47/24 40/40/24
f 48/48/25 49/49/26 42/42/26
f 50/50/27 51/51/27 44/44/27
f 52/52/28 53/53/28 46/46/28
f 54/54/29 55/55/30 48/48/31
f 56/56/32 57/57/32 50/50/32
f 58/58/33 59/59/33 52/52/33
f 60/60/34 61/61/35 54/54/36
f 62/62/37 63/63/37 56/56/37
f 64/64/38 65/65/38 58/58/38
f 66/66/39 67/67/39 60/60/39
f 68/68/40 69/69/40 62/62/40
f 70/70/41 71/71/41 64/64/41
f 72/72/42 73/73/42 66/66/42
f 74/74/43 75/75/43 68/68/43
f 76/76/44 77/77/44 70/70/44
f 78/78/45 79/79/45 72/72/45
f 80/80/46 81/81/46 74/74/46
f 82/82/47 83/83/47 76/76/47
f 84/84/48 85/85/48 78/78/48
f 86/86/49 87/87/49 80/80/49
f 88/88/50 89/89/50 82/82/50
f 90/90/51 91/91/51 84/84/51
f 92/92/52 93/93/52 86/86/52
f 94/94/53 95/95/53 88/88/53
f 96/96/54 97/97/54 90/90/54
f 98/98/55 99/99/55 92/92/55
f 100/100/56 101/101/56 94/94/56
f 102/102/57 103/103/57 96/96/57
f 104/104/58 105/105/58 98/98/58
f 106/106/59 107/107/59 100/100/59
f 108/108/60 109/109/60 102/102/60
f 110/110/61 111/111/61 104/104/61
f 112/112/62 113/113/62 106/106/62
f 114/114/63 115/115/63 108/108/63
f 116/116/64 118/117/64 117/118/64
f 119/119/65 120/120/65 110/110/65
f 121/121/66 122/122/66 112/112/66
f 123/123/67 124/124/67 114/114/67
f 125/125/68 116/116/68 126/126/68
f 127/127/69 128/128/69 119/119/69
f 129/129/70 130/130/70 121/121/70
f 131/131/71 132/132/71 123/123/71
f 133/133/72 125/125/72 134/134/72
f 127/127/73 136/135/73 135/136/73
f 137/137/74 138/138/74 129/129/74
f 139/139/75 140/140/76 131/131/76
f 133/133/77 141/141/77 142/142/77
f 143/143/78 144/144/78 137/137/78
f 145/145/79 146/146/80 139/139/81
f 142/142/82 147/147/82 148/148/82
f 149/149/83 150/150/83 143/143/83
f 151/151/84 152/152/85 145/145/85
f 148/148/86 117/118/86 118/117/86
f 153/153/87 154/154/87 149/149/87
f 155/155/88 156/156/89 151/151/90
f 157/157/91 135/136/91 136/135/91
f 158/158/92 159/159/92 153/153/92
f 3/3/93 160/160/93 155/155/93
f 6/6/94 161/161/95 157/157/95
f 9/9/96 162/162/96 158/158/96
f 126/126/97 8/8/97 15/15/97
f 97/97/97 103/103/97 163/163/97
f 48/48/98 6/6/99 54/54/100
f 118/117/101 137/137/101 129/129/101
f 1/1/1 11/11/1 2/2/1
f 4/4/2 13/13/2 5/5/102
f 7/7/5 15/15/5 8/8/5
f 10/10/6 17/17/6 11/11/6
f 12/12/7 19/19/7 13/13/7
f 14/14/8 21/21/8 15/15/8
f 16/16/9 23/23/9 17/17/9
f 18/18/10 25/25/10 19/19/10
f 20/20/11 27/27/11 21/21/11
f 22/22/12 29/29/12 23/23/12
f 24/24/13 31/31/13 25/25/13
f 26/26/14 33/33/14 27/27/14
f 28/28/15 35/35/15 29/29/15
f 30/30/16 37/37/16 31/31/16
f 32/32/17 39/39/17 33/33/17
f 34/34/18 41/41/18 35/35/18
f 36/36/19 43/43/19 37/37/19
f 38/38/20 45/45/20 39/39/20
f 40/40/21 47/47/21 41/41/21
f 42/42/22 49/49/22 43/43/22
f 44/44/23 51/51/23 45/45/23
f 46/46/24 53/53/24 47/47/24
f 48/48/103 55/55/104 49/49/26
f 50/50/27 57/57/27 51/51/27
f 52/52/28 59/59/28 53/53/28
f 54/54/105 61/61/106 55/55/107
f 56/56/32 63/63/32 57/57/32
f 58/58/33 65/65/33 59/59/33
f 60/60/34 67/67/34 61/61/108
f 62/62/37 69/69/37 63/63/37
f 64/64/38 71/71/38 65/65/38
f 66/66/39 73/73/39 67/67/39
f 68/68/40 75/75/40 69/69/40
f 70/70/41 77/77/41 71/71/41
f 72/72/42 79/79/42 73/73/42
f 74/74/43 81/81/43 75/75/43
f 76/76/44 83/83/44 77/77/44
f 78/78/45 85/85/45 79/79/45
f 80/80/46 87/87/46 81/81/46
f 82/82/47 89/89/47 83/83/47
f 84/84/48 91/91/48 85/85/48
f 86/86/49 93/93/49 87/87/49
f 88/88/50 95/95/50 89/89/50
f 90/90/51 97/97/51 91/91/51
f 92/92/52 99/99/52 93/93/52
f 94/94/53 101/101/53 95/95/53
f 96/96/54 103/103/54 97/97/54
f 98/98/55 105/105/55 99/99/55
f 100/100/56 107/107/56 101/101/56
f 102/102/57 109/109/57 103/103/57
f 104/104/58 111/111/58 105/105/58
f 106/106/59 113/113/59 107/107/59
f 108/108/60 115/115/60 109/109/60
f 110/110/61 120/120/61 111/111/61
f 112/112/62 122/122/62 113/113/62
f 114/114/63 124/124/63 115/115/63
f 116/116/64 117/118/64 126/126/64
f 119/119/65 128/128/65 120/120/65
f 121/121/66 130/130/66 122/122/66
f 123/123/67 132/132/67 124/124/67
f 125/125/68 126/126/68 134/134/68
f 127/127/69 164/164/69 128/128/69
f 129/129/70 138/138/70 130/130/70
f 131/131/71 140/140/71 132/132/71
f 133/133/72 134/134/72 163/163/72
f 127/127/73 135/136/73 164/164/73
f 137/137/74 144/144/74 138/138/74
f 139/139/109 146/146/110 140/140/76
f 133/133/77 163/163/77 141/141/77
f 143/143/78 150/150/78 144/144/78
f 145/145/79 152/152/79 146/146/111
f 142/142/82 141/141/82 147/147/82
f 149/149/83 154/154/83 150/150/83
f 151/151/112 156/156/113 152/152/85
f 148/148/86 147/147/86 117/118/86
f 153/153/87 159/159/87 154/154/87
f 155/155/88 160/160/88 156/156/114
f 157/157/115 161/161/115 135/136/115
f 158/158/92 162/162/92 159/159/92
f 3/3/93 2/2/93 160/160/93
f 6/6/116 5/5/117 161/161/95
f 9/9/96 8/8/96 162/162/96
f 126/126/97 69/69/97 134/134/97
f 134/134/97 81/81/97 87/87/97
f 134/134/97 75/75/97 81/81/97
f 107/107/97 113/113/97 147/147/97
f 147/147/97 138/138/97 117/118/97
f 113/113/97 122/122/97 147/147/97
f 122/122/97 130/130/97 147/147/97
f 134/134/97 69/69/97 75/75/97
f 130/130/97 138/138/97 147/147/97
f 126/126/97 63/63/97 69/69/97
f 126/126/97 57/57/97 63/63/97
f 144/144/97 117/118/97 138/138/97
f 126/126/97 51/51/97 57/57/97
f 126/126/97 45/45/97 51/51/97
f 150/150/97 117/118/97 144/144/97
f 154/154/97 117/118/97 150/150/97
f 126/126/97 39/39/97 45/45/97
f 126/126/97 33/33/97 39/39/97
f 154/154/97 159/159/97 117/118/97
f 117/118/97 162/162/97 126/126/97
f 159/159/97 162/162/97 117/118/97
f 126/126/97 27/27/97 33/33/97
f 126/126/97 21/21/97 27/27/97
f 8/8/97 126/126/97 162/162/97
f 126/126/97 15/15/97 21/21/97
f 134/134/97 120/120/97 163/163/97
f 163/163/97 103/103/97 141/141/97
f 128/128/97 164/164/97 163/163/97
f 147/147/97 101/101/97 107/107/97
f 147/147/97 95/95/97 101/101/97
f 93/93/97 134/134/97 87/87/97
f 99/99/97 134/134/97 93/93/97
f 141/141/97 77/77/97 147/147/97
f 147/147/97 89/89/97 95/95/97
f 147/147/97 83/83/97 89/89/97
f 105/105/97 134/134/97 99/99/97
f 111/111/97 134/134/97 105/105/97
f 147/147/97 77/77/97 83/83/97
f 120/120/97 134/134/97 111/111/97
f 128/128/97 163/163/97 120/120/97
f 141/141/97 71/71/97 77/77/97
f 141/141/97 65/65/97 71/71/97
f 164/164/97 135/136/97 163/163/97
f 135/136/97 73/73/97 163/163/97
f 141/141/97 59/59/97 65/65/97
f 141/141/97 53/53/97 59/59/97
f 85/85/97 91/91/97 163/163/97
f 13/13/97 55/55/118 5/5/119
f 5/5/120 61/61/121 161/161/97
f 161/161/97 67/67/97 135/136/97
f 163/163/97 79/79/97 85/85/97
f 141/141/97 132/132/97 53/53/97
f 53/53/97 132/132/97 47/47/97
f 47/47/97 140/140/97 41/41/97
f 140/140/97 146/146/122 41/41/97
f 135/136/97 67/67/97 73/73/97
f 163/163/97 73/73/97 79/79/97
f 31/31/97 43/43/97 25/25/97
f 25/25/97 49/49/97 19/19/97
f 31/31/97 37/37/97 43/43/97
f 41/41/97 152/152/97 35/35/97
f 35/35/97 160/160/97 29/29/97
f 29/29/97 160/160/97 23/23/97
f 23/23/97 11/11/97 17/17/97
f 11/11/97 160/160/97 2/2/97
f 11/11/97 23/23/97 160/160/97
f 160/160/97 35/35/97 156/156/123
f 49/49/97 25/25/97 43/43/97
f 55/55/124 19/19/97 49/49/97
f 19/19/97 55/55/125 13/13/97
f 41/41/97 146/146/126 152/152/97
f 152/152/97 156/156/127 35/35/97
f 47/47/97 132/132/97 140/140/97
f 61/61/128 5/5/129 55/55/130
f 67/67/97 161/161/97 61/61/131
f 141/141/97 124/124/97 132/132/97
f 141/141/97 115/115/97 124/124/97
f 141/141/97 109/109/97 115/115/97
f 141/141/97 103/103/97 109/109/97
f 91/91/97 97/97/97 163/163/97
f 116/116/101 7/7/101 9/9/101
f 116/116/101 14/14/101 7/7/101
f 142/142/101 96/96/101 133/133/101
f 133/133/101 110/110/101 125/125/101
f 119/119/101 110/110/101 133/133/101
f 94/94/101 88/88/101 148/148/101
f 148/148/101 70/70/101 142/142/101
f 88/88/101 82/82/101 148/148/101
f 82/82/101 76/76/101 148/148/101
f 125/125/101 62/62/101 116/116/101
f 116/116/101 20/20/101 14/14/101
f 116/116/101 26/26/101 20/20/101
f 76/76/101 70/70/101 148/148/101
f 116/116/101 32/32/101 26/26/101
f 116/116/101 38/38/101 32/32/101
f 64/64/101 142/142/101 70/70/101
f 116/116/101 44/44/101 38/38/101
f 116/116/101 50/50/101 44/44/101
f 58/58/101 142/142/101 64/64/101
f 52/52/101 142/142/101 58/58/101
f 116/116/101 56/56/101 50/50/101
f 116/116/101 62/62/101 56/56/101
f 46/46/101 142/142/101 52/52/101
f 40/40/101 123/123/101 46/46/101
f 46/46/101 123/123/101 142/142/101
f 125/125/101 68/68/101 62/62/101
f 34/34/101 131/131/101 40/40/101
f 34/34/101 139/139/132 131/131/101
f 16/16/101 155/155/101 22/22/101
f 22/22/101 155/155/101 28/28/101
f 28/28/101 145/145/101 34/34/101
f 28/28/101 151/151/133 145/145/101
f 125/125/101 74/74/101 68/68/101
f 125/125/101 80/80/101 74/74/101
f 1/1/101 16/16/101 10/10/101
f 155/155/101 1/1/101 3/3/101
f 151/151/134 28/28/101 155/155/101
f 155/155/101 16/16/101 1/1/101
f 125/125/101 86/86/101 80/80/101
f 125/125/101 92/92/101 86/86/101
f 145/145/101 139/139/135 34/34/101
f 131/131/101 123/123/101 40/40/101
f 125/125/101 98/98/101 92/92/101
f 125/125/101 104/104/101 98/98/101
f 125/125/101 110/110/101 104/104/101
f 114/114/101 142/142/101 123/123/101
f 108/108/101 142/142/101 114/114/101
f 133/133/101 127/127/101 119/119/101
f 133/133/101 136/135/101 127/127/101
f 102/102/101 142/142/101 108/108/101
f 96/96/101 142/142/101 102/102/101
f 133/133/101 66/66/101 136/135/101
f 72/72/101 66/66/101 133/133/101
f 157/157/101 54/54/136 6/6/137
f 6/6/138 48/48/139 4/4/101
f 60/60/101 157/157/101 136/135/101
f 133/133/101 78/78/101 72/72/101
f 90/90/101 133/133/101 96/96/101
f 84/84/101 133/133/101 90/90/101
f 136/135/101 66/66/101 60/60/101
f 12/12/101 42/42/101 18/18/101
f 18/18/101 36/36/101 24/24/101
f 36/36/101 30/30/101 24/24/101
f 78/78/101 133/133/101 84/84/101
f 42/42/101 36/36/101 18/18/101
f 42/42/101 12/12/101 48/48/140
f 4/4/101 48/48/141 12/12/101
f 60/60/101 54/54/142 157/157/101
f 9/9/101 158/158/101 116/116/101
f 116/116/101 158/158/101 118/117/101
f 118/117/101 129/129/101 148/148/101
f 148/148/101 100/100/101 94/94/101
f 148/148/101 106/106/101 100/100/101
f 153/153/101 118/117/101 158/158/101
f 148/148/101 112/112/101 106/106/101
f 148/148/101 121/121/101 112/112/101
f 149/149/101 118/117/101 153/153/101
f 143/143/101 118/117/101 149/149/101
f 148/148/101 129/129/101 121/121/101
f 137/137/101 118/117/101 143/143/101
