# Blender v3.0.1 OBJ File: ''
# www.blender.org
mtllib redStudent.mtl
o Livello_1_Mesh.001
v 0.446994 0.000000 -0.074834
v 0.465301 -0.988881 -0.000638
v 0.465301 0.000000 -0.000638
v -1.134728 0.000000 -0.667015
v -1.232258 -0.988881 -0.462291
v -1.232258 0.000000 -0.462291
v 0.424009 0.000000 -0.148206
v 0.446994 -0.988881 -0.074834
v -1.004665 0.000000 -0.850237
v -1.134728 -0.988881 -0.667015
v 0.396620 0.000000 -0.220778
v 0.424009 -0.988881 -0.148206
v -0.129564 0.000000 -0.766070
v -0.129369 -0.988881 -0.822804
v -0.129369 0.000000 -0.822804
v -0.845753 0.000000 -1.008294
v -1.004665 -0.988881 -0.850237
v 0.365099 0.000000 -0.292576
v 0.396620 -0.988881 -0.220778
v -0.135641 0.000000 -0.710849
v -0.129564 -0.988881 -0.766070
v -0.661678 0.000000 -1.137523
v -0.845753 -0.988881 -1.008294
v 0.352794 0.000000 -0.317858
v 0.365099 -0.988881 -0.292576
v -0.146848 0.000000 -0.656947
v -0.135641 -0.988881 -0.710849
v -0.456123 0.000000 -1.234262
v -0.661678 -0.988881 -1.137523
v 0.339847 0.000000 -0.342835
v 0.352794 -0.988881 -0.317858
v -0.162431 0.000000 -0.604168
v -0.146848 -0.988881 -0.656947
v -0.232775 0.000000 -1.294846
v -0.456123 -0.988881 -1.234262
v 0.326383 0.000000 -0.367563
v 0.339847 -0.988881 -0.342835
v -0.181638 0.000000 -0.552316
v -0.162431 -0.988881 -0.604168
v 0.004683 0.000000 -1.315614
v -0.232775 -0.988881 -1.294846
v 0.312529 0.000000 -0.392097
v 0.326383 -0.988881 -0.367563
v -0.203716 0.000000 -0.501195
v -0.181638 -0.988881 -0.552316
v 0.241193 0.000000 -1.294030
v 0.004683 -0.988881 -1.315614
v 0.298410 0.000000 -0.416495
v 0.312529 -0.988881 -0.392097
v -0.227911 0.000000 -0.450611
v -0.203716 -0.988881 -0.501195
v 0.463539 0.000000 -1.232487
v 0.241193 -0.988881 -1.294030
v 0.284152 0.000000 -0.440810
v 0.298410 -0.988881 -0.416495
v -0.253471 0.000000 -0.400368
v -0.227911 -0.988881 -0.450611
v 0.668051 0.000000 -1.134688
v 0.463539 -0.988881 -1.232487
v 0.269880 0.000000 -0.465098
v 0.284152 -0.988881 -0.440810
v -0.266470 0.000000 -0.375849
v -0.253471 -0.988881 -0.400368
v 0.851057 0.000000 -1.004337
v 0.668051 -0.988881 -1.134688
v 0.255722 0.000000 -0.489417
v 0.269880 -0.988881 -0.465098
v -0.279853 0.000000 -0.351487
v -0.266470 -0.988881 -0.375849
v 1.008885 0.000000 -0.845137
v 0.851057 -0.988881 -1.004337
v 0.241803 0.000000 -0.513821
v 0.255722 -0.988881 -0.489417
v -0.293403 0.000000 -0.327198
v -0.279853 -0.988881 -0.351487
v 1.137862 0.000000 -0.660792
v 1.008885 -0.988881 -0.845137
v 0.228725 0.000000 -0.479568
v 0.241803 -0.988881 -0.513821
v -0.306905 0.000000 -0.302897
v -0.293403 -0.988881 -0.327198
v 1.234318 0.000000 -0.455004
v 1.137862 -0.988881 -0.660792
v 0.215927 0.000000 -0.446001
v 0.228725 -0.988881 -0.479568
v -0.320143 0.000000 -0.278504
v -0.306905 -0.988881 -0.302897
v 1.294581 0.000000 -0.231477
v 1.234318 -0.988881 -0.455004
v 0.203371 0.000000 -0.413035
v 0.215927 -0.988881 -0.446001
v -0.332901 0.000000 -0.253933
v -0.320143 -0.988881 -0.278504
v 1.314979 -0.000000 0.006085
v 1.294581 -0.988881 -0.231477
v 0.191023 0.000000 -0.380585
v 0.203371 -0.988881 -0.413035
v -0.344962 0.000000 -0.229103
v -0.332901 -0.988881 -0.253933
v 1.293170 -0.000000 0.242224
v 1.314979 -0.988881 0.006085
v 0.178843 0.000000 -0.348565
v 0.191023 -0.988881 -0.380585
v -0.356110 0.000000 -0.203929
v -0.344962 -0.988881 -0.229103
v 1.231688 -0.000000 0.464214
v 1.293170 -0.988881 0.242224
v 0.166798 0.000000 -0.316889
v 0.178843 -0.988881 -0.348565
v -0.366130 0.000000 -0.178329
v -0.356110 -0.988881 -0.203929
v 1.134198 -0.000000 0.668408
v 1.231688 -0.988881 0.464214
v 0.154850 0.000000 -0.285471
v 0.166798 -0.988881 -0.316889
v -0.382140 0.000000 -0.135547
v -0.366130 -0.988881 -0.178329
v 1.004369 -0.000000 0.851160
v 1.134198 -0.988881 0.668408
v 0.142964 0.000000 -0.254227
v 0.154850 -0.988881 -0.285471
v -0.398682 0.000000 -0.092577
v -0.382140 -0.988881 -0.135547
v 0.845866 -0.000000 1.008821
v 1.004369 -0.988881 0.851160
v 0.131101 0.000000 -0.223070
v 0.142964 -0.988881 -0.254227
v -0.415198 0.000000 -0.049426
v -0.398682 -0.988881 -0.092577
v 0.662358 -0.000000 1.137744
v 0.845866 -0.988881 1.008821
v -0.431131 0.000000 -0.006100
v -0.415198 -0.988881 -0.049426
v 0.457510 -0.000000 1.234282
v 0.662358 -0.988881 1.137744
v -0.445925 -0.000000 0.037395
v -0.431131 -0.988881 -0.006100
v 0.234991 -0.000000 1.294788
v 0.457510 -0.988881 1.234282
v -0.459021 -0.000000 0.081053
v -0.445925 -0.988881 0.037395
v -0.469861 -0.000000 0.124866
v -0.459021 -0.988881 0.081053
v -0.477889 -0.000000 0.168829
v -0.469861 -0.988881 0.124866
v -0.482547 -0.000000 0.212937
v -0.477889 -0.988881 0.168829
v -0.480308 -0.000000 0.312067
v -0.482547 -0.988881 0.212937
v -0.461332 -0.000000 0.408000
v -0.480308 -0.988881 0.312067
v -0.425968 -0.000000 0.497871
v -0.461332 -0.988881 0.408000
v -0.374559 -0.000000 0.578817
v -0.425968 -0.988881 0.497871
v 0.106077 0.000000 -0.389578
v 0.114806 -0.988881 -0.309637
v 0.114806 0.000000 -0.309637
v -0.307453 -0.000000 0.647972
v -0.374559 -0.988881 0.578817
v 0.089481 0.000000 -0.466516
v 0.106077 -0.988881 -0.389578
v -0.224996 -0.000000 0.702472
v -0.307453 -0.988881 0.647972
v 0.065723 0.000000 -0.540740
v 0.089481 -0.988881 -0.466516
v -0.127534 -0.000000 0.739455
v -0.224996 -0.988881 0.702472
v 0.035509 0.000000 -0.612538
v 0.065723 -0.988881 -0.540740
v -0.015414 -0.000000 0.756054
v -0.127534 -0.988881 0.739455
v -0.000458 0.000000 -0.682199
v 0.035509 -0.988881 -0.612538
v 0.111019 -0.000000 0.749406
v -0.015414 -0.988881 0.756054
v -0.041470 0.000000 -0.750012
v -0.000458 -0.988881 -0.682199
v 0.179911 -0.000000 0.735680
v 0.111019 -0.988881 0.749406
v -0.086823 0.000000 -0.816265
v -0.041470 -0.988881 -0.750012
v 0.241315 -0.000000 0.715405
v 0.179911 -0.988881 0.735680
v 0.295417 -0.000000 0.688502
v 0.241315 -0.988881 0.715405
v 0.342403 -0.000000 0.654897
v 0.295417 -0.988881 0.688502
v 0.382460 -0.000000 0.614509
v 0.342403 -0.988881 0.654897
v -0.461209 -0.000000 1.233042
v -0.238492 -0.988881 1.294246
v -0.238492 -0.000000 1.294246
v 0.415774 -0.000000 0.567263
v 0.382460 -0.988881 0.614509
v -0.666037 -0.000000 1.135667
v -0.461209 -0.988881 1.233042
v 0.442532 -0.000000 0.513079
v 0.415774 -0.988881 0.567263
v -0.849326 -0.000000 1.005785
v -0.666037 -0.988881 1.135667
v 0.462919 -0.000000 0.451882
v 0.442532 -0.988881 0.513079
v -1.007428 -0.000000 0.847060
v -0.849326 -0.988881 1.005785
v 0.477123 -0.000000 0.383593
v 0.462919 -0.988881 0.451882
v -1.136693 -0.000000 0.663155
v -1.007428 -0.988881 0.847060
v 0.486297 -0.000000 0.304896
v 0.477123 -0.988881 0.383593
v -1.233473 -0.000000 0.457736
v -1.136693 -0.988881 0.663155
v 0.489428 -0.000000 0.227149
v 0.486297 -0.988881 0.304896
v -1.294118 -0.000000 0.234467
v -1.233473 -0.988881 0.457736
v 0.486791 -0.000000 0.150328
v 0.489428 -0.988881 0.227149
v -1.314979 0.000000 -0.002990
v -1.294118 -0.988881 0.234467
v 0.478658 -0.000000 0.074408
v 0.486791 -0.988881 0.150328
v -1.293570 0.000000 -0.239728
v -1.314979 -0.988881 -0.002990
v 0.478658 -0.988881 0.074408
v -1.293570 -0.988881 -0.239728
v -0.001535 -0.000000 1.315614
v -0.001535 -0.988881 1.315614
v -0.001535 -0.000000 1.315614
v 0.234991 -0.988881 1.294788
v 0.234991 -0.000000 1.294788
v 0.234991 -0.988881 1.294788
v -0.135811 -0.988881 -0.881248
v -0.086823 -0.988881 -0.816265
v 0.116755 -0.988881 -0.226033
v 0.131101 -0.988881 -0.223070
v 0.116755 0.000000 -0.226033
v -0.001535 -0.988881 1.315614
v -0.135811 0.000000 -0.881248
v 0.129308 0.000000 -0.223441
v 0.123928 0.000000 -0.224552
v 0.122135 0.000000 -0.224922
v -0.135811 0.000000 -0.881248
v -0.001535 -0.000000 1.315614
v 0.127514 0.000000 -0.223811
v 0.120341 0.000000 -0.225293
v -0.135811 0.000000 -0.881248
v 0.125721 0.000000 -0.224182
v -0.001535 -0.000000 1.315614
vn -0.9709 0.0000 0.2396
vn -0.9028 -0.0000 -0.4301
vn -0.9543 0.0000 0.2989
vn -0.8154 -0.0000 -0.5788
vn -0.9356 -0.0000 0.3531
vn 1.0000 0.0000 0.0034
vn -0.7052 0.0000 -0.7090
vn -0.9156 0.0000 0.4020
vn 0.9940 -0.0000 0.1094
vn -0.5746 0.0000 -0.8184
vn -0.8992 0.0000 0.4376
vn 0.9791 -0.0000 0.2036
vn -0.4258 0.0000 -0.9048
vn -0.8878 -0.0000 0.4602
vn 0.9591 -0.0000 0.2832
vn -0.2618 0.0000 -0.9651
vn -0.8783 -0.0000 0.4782
vn 0.9377 -0.0000 0.3474
vn -0.0871 0.0000 -0.9962
vn -0.8682 0.0000 0.4963
vn -0.8708 -0.0000 0.4917
vn 0.9180 -0.0000 0.3965
vn 0.0909 0.0000 -0.9959
vn -0.8641 -0.0000 0.5034
vn 0.9021 -0.0000 0.4315
vn 0.2668 0.0000 -0.9638
vn -0.8624 -0.0000 0.5062
vn 0.8913 0.0000 0.4534
vn 0.4314 0.0000 -0.9022
vn -0.8632 -0.0000 0.5049
vn 0.8835 -0.0000 0.4684
vn 0.5802 0.0000 -0.8145
vn -0.8664 -0.0000 0.4993
vn 0.8749 -0.0000 0.4843
vn 0.8765 -0.0000 0.4815
vn 0.7102 0.0000 -0.7040
vn -0.8686 -0.0000 0.4954
vn 0.8737 -0.0000 0.4864
vn 0.8194 0.0000 -0.5733
vn 0.9343 -0.0000 0.3565
vn 0.9342 -0.0000 0.3567
vn 0.8765 -0.0000 0.4813
vn 0.9055 -0.0000 -0.4244
vn 0.9345 0.0000 0.3561
vn 0.8789 -0.0000 0.4770
vn 0.9655 0.0000 -0.2603
vn 0.9346 -0.0000 0.3558
vn 0.8875 0.0000 0.4608
vn 0.9963 0.0000 -0.0855
vn 0.9346 -0.0000 0.3556
vn 0.8995 -0.0000 0.4369
vn 0.9958 -0.0000 0.0920
vn 0.9347 -0.0000 0.3555
vn 0.9144 -0.0000 0.4049
vn 0.9637 0.0000 0.2669
vn 0.9347 -0.0000 0.3554
vn 0.9312 0.0000 0.3645
vn 0.9024 -0.0000 0.4309
vn 0.9349 -0.0000 0.3549
vn 0.9366 -0.0000 0.3505
vn 0.8152 -0.0000 0.5791
vn 0.9346 -0.0000 0.3557
vn 0.9336 -0.0000 0.3584
vn 0.7052 -0.0000 0.7090
vn 0.9363 -0.0000 0.3513
vn 0.5749 0.0000 0.8183
vn 0.9385 -0.0000 0.3451
vn 0.4263 0.0000 0.9046
vn 0.9467 -0.0000 0.3220
vn 0.2624 0.0000 0.9650
vn 0.9578 -0.0000 0.2873
vn 0.9707 0.0000 0.2402
vn 0.9837 0.0000 0.1796
vn 0.9945 -0.0000 0.1050
vn 0.9997 -0.0000 -0.0226
vn 0.9810 -0.0000 -0.1940
vn 0.9305 0.0000 -0.3662
vn 0.8441 0.0000 -0.5361
vn -0.9941 -0.0000 0.1085
vn 0.7177 0.0000 -0.6964
vn -0.9775 0.0000 0.2109
vn 0.5514 0.0000 -0.8342
vn -0.9524 -0.0000 0.3048
vn 0.3548 0.0000 -0.9350
vn -0.9217 -0.0000 0.3879
vn 0.1464 0.0000 -0.9892
vn 0.1465 0.0000 -0.9892
vn -0.8886 -0.0000 0.4588
vn -0.0525 0.0000 -0.9986
vn -0.8557 -0.0000 0.5175
vn -0.1954 0.0000 -0.9807
vn -0.8252 -0.0000 0.5649
vn -0.3135 0.0000 -0.9496
vn -0.4453 0.0000 -0.8954
vn -0.5817 0.0000 -0.8134
vn -0.7100 0.0000 -0.7042
vn -0.2650 0.0000 0.9643
vn -0.8173 -0.0000 -0.5763
vn -0.4293 0.0000 0.9031
vn -0.4294 0.0000 0.9031
vn -0.8966 0.0000 -0.4428
vn -0.5782 0.0000 0.8159
vn -0.9487 0.0000 -0.3161
vn -0.7085 -0.0000 0.7057
vn -0.9790 -0.0000 -0.2036
vn -0.8181 -0.0000 0.5750
vn -0.9933 0.0000 -0.1158
vn -0.9046 -0.0000 0.4262
vn -0.9992 0.0000 -0.0402
vn -0.9650 0.0000 0.2621
vn -0.9994 0.0000 0.0343
vn -0.9962 -0.0000 0.0875
vn -0.9943 0.0000 0.1065
vn -0.9959 0.0000 -0.0901
vn -0.9845 0.0000 0.1752
vn -0.9641 -0.0000 -0.2656
vn 0.0000 0.0000 1.0000
vn 0.0877 0.0000 0.9961
vn -0.0898 0.0000 0.9960
vn -0.7985 -0.0000 0.6020
vn 0.9940 0.0000 -0.1096
vn -0.2023 -0.0000 0.9793
vn -0.9997 0.0000 0.0233
vn 0.0000 -1.0000 0.0000
vn -0.0000 1.0000 0.0000
usemtl (null)
s 1
f 1//1 2//1 3//1
f 4//2 5//2 6//2
f 7//3 8//3 1//3
f 9//4 10//4 4//4
f 11//5 12//5 7//5
f 13//6 14//6 15//6
f 16//7 17//7 9//7
f 18//8 19//8 11//8
f 20//9 21//9 13//9
f 22//10 23//10 16//10
f 24//11 25//11 18//11
f 26//12 27//12 20//12
f 28//13 29//13 22//13
f 30//14 31//14 24//14
f 32//15 33//15 26//15
f 34//16 35//16 28//16
f 36//17 37//17 30//17
f 38//18 39//18 32//18
f 40//19 41//19 34//19
f 42//20 43//21 36//21
f 44//22 45//22 38//22
f 46//23 47//23 40//23
f 48//24 49//20 42//20
f 50//25 51//25 44//25
f 52//26 53//26 46//26
f 54//27 55//24 48//24
f 56//28 57//28 50//28
f 58//29 59//29 52//29
f 60//30 61//27 54//27
f 62//31 63//31 56//31
f 64//32 65//32 58//32
f 66//33 67//30 60//30
f 68//34 69//35 62//35
f 70//36 71//36 64//36
f 72//37 73//33 66//33
f 74//38 75//34 68//34
f 76//39 77//39 70//39
f 78//40 79//41 72//41
f 80//42 81//38 74//38
f 82//43 83//43 76//43
f 84//44 85//40 78//40
f 86//45 87//42 80//42
f 88//46 89//46 82//46
f 90//47 91//44 84//44
f 92//48 93//48 86//48
f 94//49 95//49 88//49
f 96//50 97//47 90//47
f 98//51 99//51 92//51
f 100//52 101//52 94//52
f 102//53 103//50 96//50
f 104//54 105//54 98//54
f 106//55 107//55 100//55
f 108//56 109//53 102//53
f 110//57 111//57 104//57
f 112//58 113//58 106//58
f 114//53 115//56 108//56
f 116//59 117//60 110//60
f 118//61 119//61 112//61
f 120//62 121//53 114//53
f 122//63 123//59 116//59
f 124//64 125//64 118//64
f 126//47 127//62 120//62
f 128//65 129//63 122//63
f 130//66 131//66 124//66
f 132//67 133//65 128//65
f 134//68 135//68 130//68
f 136//69 137//69 132//69
f 138//70 139//70 134//70
f 140//71 141//71 136//71
f 142//72 143//72 140//72
f 144//73 145//73 142//73
f 146//74 147//74 144//74
f 148//75 149//75 146//75
f 150//76 151//76 148//76
f 152//77 153//77 150//77
f 154//78 155//78 152//78
f 156//79 157//79 158//79
f 159//80 160//80 154//80
f 161//81 162//81 156//81
f 163//82 164//82 159//82
f 165//83 166//83 161//83
f 167//84 168//84 163//84
f 169//85 170//85 165//85
f 171//86 172//87 167//86
f 173//88 174//88 169//88
f 175//89 176//89 171//89
f 177//90 178//90 173//90
f 179//91 180//91 175//91
f 181//92 182//92 177//92
f 183//93 184//93 179//93
f 185//94 186//94 183//94
f 187//95 188//95 185//95
f 189//96 190//96 187//96
f 191//97 192//97 193//97
f 194//98 195//98 189//98
f 196//99 197//100 191//99
f 198//101 199//101 194//101
f 200//102 201//102 196//102
f 202//103 203//103 198//103
f 204//104 205//104 200//104
f 206//105 207//105 202//105
f 208//106 209//106 204//106
f 210//107 211//107 206//107
f 212//108 213//108 208//108
f 214//109 215//109 210//109
f 216//110 217//110 212//110
f 218//111 219//111 214//111
f 220//112 221//112 216//112
f 222//113 223//113 218//113
f 224//114 225//114 220//114
f 3//115 226//115 222//115
f 6//116 227//116 224//116
f 228//117 229//117 230//117
f 231//117 232//117 233//117
f 232//118 229//118 233//118
f 192//119 230//119 193//119
f 181//120 234//120 235//120
f 234//121 15//121 14//121
f 126//122 236//122 237//122
f 158//123 236//123 238//123
f 176//124 192//124 172//124
f 201//124 164//124 197//124
f 153//124 155//124 209//124
f 129//124 133//124 5//124
f 93//124 17//124 87//124
f 235//124 53//124 182//124
f 166//124 79//124 85//124
f 8//124 12//124 89//124
f 190//124 195//124 135//124
f 233//124 176//124 139//124
f 136//125 132//125 224//125
f 191//125 167//125 163//125
f 210//125 206//125 106//125
f 70//125 36//125 30//125
f 40//125 90//125 84//125
f 238//125 126//125 158//125
f 156//125 126//125 40//125
f 40//125 177//125 173//125
f 20//125 13//125 22//125
f 1//1 8//1 2//1
f 4//2 10//2 5//2
f 7//3 12//3 8//3
f 9//4 17//4 10//4
f 11//5 19//5 12//5
f 13//6 21//6 14//6
f 16//7 23//7 17//7
f 18//8 25//8 19//8
f 20//9 27//9 21//9
f 22//10 29//10 23//10
f 24//11 31//11 25//11
f 26//12 33//12 27//12
f 28//13 35//13 29//13
f 30//14 37//14 31//14
f 32//15 39//15 33//15
f 34//16 41//16 35//16
f 36//17 43//17 37//17
f 38//18 45//18 39//18
f 40//19 47//19 41//19
f 42//20 49//20 43//21
f 44//22 51//22 45//22
f 46//23 53//23 47//23
f 48//24 55//24 49//20
f 50//25 57//25 51//25
f 52//26 59//26 53//26
f 54//27 61//27 55//24
f 56//28 63//28 57//28
f 58//29 65//29 59//29
f 60//30 67//30 61//27
f 62//31 69//31 63//31
f 64//32 71//32 65//32
f 66//33 73//33 67//30
f 68//34 75//34 69//35
f 70//36 77//36 71//36
f 72//37 79//37 73//33
f 74//38 81//38 75//34
f 76//39 83//39 77//39
f 78//40 85//40 79//41
f 80//42 87//42 81//38
f 82//43 89//43 83//43
f 84//44 91//44 85//40
f 86//45 93//45 87//42
f 88//46 95//46 89//46
f 90//47 97//47 91//44
f 92//48 99//48 93//48
f 94//49 101//49 95//49
f 96//50 103//50 97//47
f 98//51 105//51 99//51
f 100//52 107//52 101//52
f 102//53 109//53 103//50
f 104//54 111//54 105//54
f 106//55 113//55 107//55
f 108//56 115//56 109//53
f 110//57 117//57 111//57
f 112//58 119//58 113//58
f 114//53 121//53 115//56
f 116//59 123//59 117//60
f 118//61 125//61 119//61
f 120//62 127//62 121//53
f 122//63 129//63 123//59
f 124//64 131//64 125//64
f 126//47 237//47 127//62
f 128//65 133//65 129//63
f 130//66 135//66 131//66
f 132//67 137//67 133//65
f 134//68 139//68 135//68
f 136//69 141//69 137//69
f 138//70 231//70 139//70
f 140//71 143//71 141//71
f 142//72 145//72 143//72
f 144//73 147//73 145//73
f 146//74 149//74 147//74
f 148//75 151//75 149//75
f 150//76 153//76 151//76
f 152//77 155//77 153//77
f 154//78 160//78 155//78
f 156//79 162//79 157//79
f 159//80 164//80 160//80
f 161//81 166//81 162//81
f 163//82 168//82 164//82
f 165//83 170//83 166//83
f 167//84 172//84 168//84
f 169//85 174//85 170//85
f 171//86 176//87 172//87
f 173//88 178//88 174//88
f 175//89 180//89 176//89
f 177//90 182//90 178//90
f 179//91 184//91 180//91
f 181//92 235//92 182//92
f 183//93 186//93 184//93
f 185//94 188//94 186//94
f 187//95 190//95 188//95
f 189//96 195//96 190//96
f 191//97 197//97 192//97
f 194//98 199//98 195//98
f 196//99 201//100 197//100
f 198//101 203//101 199//101
f 200//102 205//102 201//102
f 202//103 207//103 203//103
f 204//104 209//104 205//104
f 206//105 211//105 207//105
f 208//106 213//106 209//106
f 210//107 215//107 211//107
f 212//108 217//108 213//108
f 214//109 219//109 215//109
f 216//110 221//110 217//110
f 218//111 223//111 219//111
f 220//112 225//112 221//112
f 222//113 226//113 223//113
f 224//114 227//114 225//114
f 3//115 2//115 226//115
f 6//116 5//116 227//116
f 228//117 239//117 229//117
f 231//117 138//117 232//117
f 232//118 230//118 229//118
f 192//119 229//119 230//119
f 181//120 240//120 234//120
f 234//121 240//121 15//121
f 126//122 238//122 236//122
f 158//123 157//123 236//123
f 176//124 229//124 192//124
f 205//124 160//124 201//124
f 160//124 164//124 201//124
f 168//124 172//124 197//124
f 172//124 192//124 197//124
f 164//124 168//124 197//124
f 221//124 147//124 149//124
f 221//124 149//124 217//124
f 149//124 151//124 217//124
f 213//124 217//124 151//124
f 213//124 151//124 153//124
f 205//124 209//124 155//124
f 209//124 213//124 153//124
f 155//124 160//124 205//124
f 10//124 93//124 99//124
f 10//124 99//124 105//124
f 227//124 5//124 133//124
f 5//124 10//124 111//124
f 227//124 141//124 225//124
f 221//124 225//124 147//124
f 143//124 225//124 141//124
f 145//124 147//124 225//124
f 143//124 145//124 225//124
f 141//124 227//124 137//124
f 10//124 105//124 111//124
f 117//124 123//124 5//124
f 123//124 129//124 5//124
f 111//124 117//124 5//124
f 137//124 227//124 133//124
f 10//124 17//124 93//124
f 17//124 23//124 57//124
f 23//124 29//124 33//124
f 29//124 35//124 33//124
f 33//124 39//124 23//124
f 39//124 45//124 23//124
f 45//124 51//124 23//124
f 51//124 57//124 23//124
f 57//124 63//124 17//124
f 63//124 69//124 17//124
f 69//124 75//124 17//124
f 75//124 81//124 17//124
f 81//124 87//124 17//124
f 14//124 21//124 35//124
f 21//124 27//124 35//124
f 27//124 33//124 35//124
f 35//124 41//124 234//124
f 41//124 47//124 234//124
f 47//124 53//124 234//124
f 53//124 59//124 182//124
f 234//124 53//124 235//124
f 59//124 166//124 170//124
f 59//124 170//124 174//124
f 234//124 14//124 35//124
f 59//124 174//124 178//124
f 59//124 178//124 182//124
f 77//124 25//124 31//124
f 77//124 31//124 37//124
f 65//124 71//124 79//124
f 71//124 77//124 61//124
f 43//124 77//124 37//124
f 166//124 59//124 79//124
f 59//124 65//124 79//124
f 162//124 166//124 97//124
f 77//124 43//124 49//124
f 77//124 49//124 55//124
f 237//124 236//124 127//124
f 236//124 157//124 127//124
f 121//124 127//124 157//124
f 109//124 115//124 157//124
f 115//124 121//124 157//124
f 157//124 162//124 109//124
f 77//124 55//124 61//124
f 103//124 109//124 162//124
f 71//124 61//124 67//124
f 79//124 71//124 73//124
f 67//124 73//124 71//124
f 97//124 103//124 162//124
f 91//124 97//124 166//124
f 85//124 91//124 166//124
f 77//124 83//124 31//124
f 83//124 89//124 19//124
f 89//124 95//124 8//124
f 2//124 101//124 226//124
f 95//124 101//124 2//124
f 101//124 107//124 223//124
f 219//124 107//124 215//124
f 107//124 207//124 211//124
f 107//124 211//124 215//124
f 107//124 219//124 223//124
f 25//124 31//124 83//124
f 101//124 223//124 226//124
f 19//124 25//124 83//124
f 12//124 19//124 89//124
f 95//124 2//124 8//124
f 139//124 176//124 180//124
f 139//124 180//124 184//124
f 131//124 135//124 195//124
f 135//124 139//124 188//124
f 186//124 139//124 184//124
f 119//124 125//124 207//124
f 125//124 131//124 199//124
f 107//124 113//124 207//124
f 113//124 119//124 207//124
f 207//124 125//124 203//124
f 199//124 203//124 125//124
f 139//124 186//124 188//124
f 195//124 199//124 131//124
f 135//124 188//124 190//124
f 233//124 229//124 176//124
f 38//125 32//125 9//125
f 9//125 4//125 86//125
f 4//125 6//125 104//125
f 9//125 80//125 74//125
f 6//125 224//125 128//125
f 224//125 220//125 136//125
f 86//125 4//125 92//125
f 220//125 216//125 144//125
f 216//125 212//125 146//125
f 212//125 154//125 152//125
f 212//125 152//125 150//125
f 4//125 104//125 98//125
f 38//125 9//125 44//125
f 80//125 9//125 86//125
f 62//125 9//125 68//125
f 50//125 44//125 9//125
f 62//125 56//125 9//125
f 56//125 50//125 9//125
f 74//125 68//125 9//125
f 92//125 4//125 98//125
f 212//125 150//125 148//125
f 212//125 148//125 146//125
f 146//125 144//125 216//125
f 144//125 142//125 220//125
f 104//125 6//125 110//125
f 110//125 6//125 116//125
f 142//125 140//125 220//125
f 140//125 136//125 220//125
f 116//125 6//125 122//125
f 6//125 128//125 122//125
f 128//125 224//125 132//125
f 159//125 154//125 196//125
f 154//125 212//125 208//125
f 204//125 154//125 208//125
f 204//125 200//125 154//125
f 200//125 196//125 154//125
f 159//125 196//125 191//125
f 191//125 193//125 167//125
f 167//125 193//125 171//125
f 193//125 230//125 171//125
f 230//125 179//125 175//125
f 230//125 175//125 171//125
f 163//125 159//125 191//125
f 183//125 179//125 134//125
f 179//125 230//125 232//125
f 232//125 134//125 179//125
f 185//125 134//125 130//125
f 130//125 124//125 189//125
f 187//125 130//125 189//125
f 124//125 118//125 194//125
f 118//125 112//125 202//125
f 112//125 106//125 206//125
f 106//125 100//125 214//125
f 194//125 118//125 198//125
f 100//125 7//125 1//125
f 100//125 1//125 3//125
f 189//125 124//125 194//125
f 134//125 185//125 183//125
f 130//125 187//125 185//125
f 100//125 3//125 222//125
f 100//125 222//125 218//125
f 198//125 118//125 202//125
f 100//125 218//125 214//125
f 214//125 210//125 106//125
f 202//125 112//125 206//125
f 11//125 7//125 82//125
f 7//125 100//125 94//125
f 94//125 88//125 7//125
f 24//125 70//125 30//125
f 88//125 82//125 7//125
f 82//125 76//125 11//125
f 42//125 70//125 48//125
f 76//125 70//125 24//125
f 70//125 64//125 54//125
f 54//125 64//125 60//125
f 64//125 72//125 66//125
f 66//125 60//125 64//125
f 54//125 48//125 70//125
f 70//125 42//125 36//125
f 18//125 11//125 76//125
f 24//125 18//125 76//125
f 72//125 64//125 58//125
f 58//125 52//125 72//125
f 52//125 46//125 72//125
f 46//125 40//125 72//125
f 40//125 126//125 120//125
f 102//125 40//125 108//125
f 120//125 114//125 40//125
f 114//125 108//125 40//125
f 78//125 72//125 40//125
f 40//125 102//125 96//125
f 40//125 96//125 90//125
f 84//125 78//125 40//125
f 156//125 158//125 126//125
f 161//125 156//125 40//125
f 40//125 34//125 240//125
f 40//125 240//125 181//125
f 165//125 161//125 40//125
f 169//125 165//125 40//125
f 40//125 181//125 177//125
f 173//125 169//125 40//125
f 13//125 15//125 22//125
f 15//125 240//125 22//125
f 240//125 34//125 28//125
f 28//125 22//125 240//125
f 22//125 16//125 26//125
f 16//125 9//125 32//125
f 32//125 26//125 16//125
f 26//125 20//125 22//125
l 241 246
l 250 193
l 242 243
l 138 245
l 249 242
l 243 247
l 245 228
l 181 244
l 126 241
l 246 249
l 248 15
l 244 240
