# Blender v3.0.1 OBJ File: ''
# www.blender.org
mtllib redStudent.mtl
o Livello_1_Mesh.004
v -0.135811 -0.000000 -0.881248
v -0.129369 -0.000000 -0.822804
v -0.129564 -0.000000 -0.766070
v -0.135641 -0.000000 -0.710849
v -0.146848 -0.000000 -0.656947
v -0.162431 -0.000000 -0.604168
v -0.181638 -0.000000 -0.552316
v -0.203716 -0.000000 -0.501195
v -0.227911 -0.000000 -0.450611
v -0.253471 -0.000000 -0.400368
v -0.266470 -0.000000 -0.375849
v -0.279853 -0.000000 -0.351487
v -0.293403 -0.000000 -0.327198
v -0.306905 0.000000 -0.302897
v -0.320143 -0.000000 -0.278504
v -0.332901 0.000000 -0.253933
v -0.344962 -0.000000 -0.229103
v -0.356110 -0.000000 -0.203929
v -0.366130 -0.000000 -0.178329
v -0.382140 0.000000 -0.135547
v -0.398682 -0.000000 -0.092577
v -0.415198 -0.000000 -0.049426
v -0.431131 -0.000000 -0.006100
v -0.445925 -0.000000 0.037395
v -0.459021 -0.000000 0.081053
v -0.469861 -0.000000 0.124866
v -0.477889 -0.000000 0.168829
v -0.482547 0.000000 0.212937
v -0.480308 -0.000000 0.312067
v -0.461332 -0.000000 0.408000
v -0.425968 0.000000 0.497871
v -0.374559 -0.000000 0.578817
v -0.307453 -0.000000 0.647972
v -0.224996 -0.000000 0.702472
v -0.127534 0.000000 0.739455
v -0.015414 -0.000000 0.756054
v 0.111019 0.000000 0.749406
v 0.179911 -0.000000 0.735680
v 0.241315 -0.000000 0.715405
v 0.295417 0.000000 0.688502
v 0.342403 -0.000000 0.654897
v 0.382460 -0.000000 0.614509
v 0.415774 -0.000000 0.567263
v 0.442532 -0.000000 0.513079
v 0.462919 -0.000000 0.451882
v 0.477123 -0.000000 0.383593
v 0.486297 -0.000000 0.304896
v 0.489428 -0.000000 0.227149
v 0.486791 -0.000000 0.150328
v 0.478658 -0.000000 0.074408
v 0.465301 -0.000000 -0.000638
v 0.446994 -0.000000 -0.074834
v 0.424009 -0.000000 -0.148206
v 0.396620 -0.000000 -0.220778
v 0.365099 0.000000 -0.292576
v 0.352794 -0.000000 -0.317858
v 0.339847 -0.000000 -0.342835
v 0.326383 -0.000000 -0.367563
v 0.312529 -0.000000 -0.392097
v 0.298410 -0.000000 -0.416495
v 0.284152 -0.000000 -0.440810
v 0.269880 -0.000000 -0.465098
v 0.255722 -0.000000 -0.489417
v 0.241803 -0.000000 -0.513821
v 0.228725 -0.000000 -0.479568
v 0.215927 -0.000000 -0.446001
v 0.203371 -0.000000 -0.413035
v 0.191023 -0.000000 -0.380585
v 0.178843 -0.000000 -0.348565
v 0.166798 -0.000000 -0.316889
v 0.154850 -0.000000 -0.285471
v 0.142964 -0.000000 -0.254227
v 0.131101 -0.000000 -0.223070
v 0.114962 -0.000000 -0.226404
v 0.114806 -0.000000 -0.309637
v 0.106077 -0.000000 -0.389578
v 0.089481 -0.000000 -0.466516
v 0.065723 -0.000000 -0.540740
v 0.035509 -0.000000 -0.612538
v -0.000458 -0.000000 -0.682199
v -0.041470 0.000000 -0.750012
v -0.086823 -0.000000 -0.816265
v -0.135811 -0.000000 -0.881248
v -0.135811 -0.000000 -0.881248
v -0.001535 0.000000 1.315614
v -0.238492 -0.000000 1.294246
v -0.461209 -0.000000 1.233042
v -0.666037 0.000000 1.135667
v -0.849326 -0.000000 1.005785
v -1.007428 0.000000 0.847060
v -1.136693 0.000000 0.663155
v -1.233473 0.000000 0.457736
v -1.294118 -0.000000 0.234467
v -1.314979 -0.000000 -0.002990
v -1.293570 -0.000000 -0.239728
v -1.232258 -0.000000 -0.462291
v -1.134728 -0.000000 -0.667015
v -1.004665 -0.000000 -0.850237
v -0.845753 -0.000000 -1.008294
v -0.661678 -0.000000 -1.137523
v -0.456123 -0.000000 -1.234262
v -0.232775 -0.000000 -1.294846
v 0.004683 -0.000000 -1.315614
v 0.241193 -0.000000 -1.294030
v 0.463539 -0.000000 -1.232487
v 0.668051 -0.000000 -1.134688
v 0.851057 -0.000000 -1.004337
v 1.008885 0.000000 -0.845137
v 1.137862 -0.000000 -0.660792
v 1.234318 -0.000000 -0.455004
v 1.294581 -0.000000 -0.231477
v 1.314979 -0.000000 0.006085
v 1.293170 0.000000 0.242224
v 1.231688 -0.000000 0.464214
v 1.134198 -0.000000 0.668408
v 1.004369 0.000000 0.851160
v 0.845866 -0.000000 1.008821
v 0.662358 0.000000 1.137744
v 0.457510 -0.000000 1.234282
v 0.234991 0.000000 1.294788
v -0.001535 0.000000 1.315614
v -0.001535 0.000000 1.315614
v -0.135811 -1.000000 -0.881248
v -0.129369 -1.000000 -0.822804
v -0.129564 -1.000000 -0.766070
v -0.135641 -1.000000 -0.710849
v -0.146848 -1.000000 -0.656947
v -0.162431 -1.000000 -0.604168
v -0.181638 -1.000000 -0.552316
v -0.203716 -1.000000 -0.501195
v -0.227911 -1.000000 -0.450611
v -0.253471 -1.000000 -0.400368
v -0.266470 -1.000000 -0.375849
v -0.279853 -1.000000 -0.351487
v -0.293403 -1.000000 -0.327198
v -0.306905 -1.000000 -0.302897
v -0.320143 -1.000000 -0.278504
v -0.332901 -1.000000 -0.253933
v -0.344962 -1.000000 -0.229103
v -0.356110 -1.000000 -0.203929
v -0.366130 -1.000000 -0.178329
v -0.382140 -1.000000 -0.135547
v -0.398682 -1.000000 -0.092577
v -0.415198 -1.000000 -0.049426
v -0.431131 -1.000000 -0.006100
v -0.445925 -1.000000 0.037395
v -0.459021 -1.000000 0.081053
v -0.469861 -1.000000 0.124866
v -0.477889 -1.000000 0.168829
v -0.482547 -1.000000 0.212937
v -0.480308 -1.000000 0.312067
v -0.461332 -1.000000 0.408000
v -0.425968 -1.000000 0.497871
v -0.374559 -1.000000 0.578817
v -0.307453 -1.000000 0.647972
v -0.224996 -1.000000 0.702472
v -0.127534 -1.000000 0.739455
v -0.015414 -1.000000 0.756054
v 0.111019 -1.000000 0.749406
v 0.179911 -1.000000 0.735680
v 0.241315 -1.000000 0.715405
v 0.295417 -1.000000 0.688502
v 0.342403 -1.000000 0.654897
v 0.382460 -1.000000 0.614509
v 0.415774 -1.000000 0.567263
v 0.442532 -1.000000 0.513079
v 0.462919 -1.000000 0.451882
v 0.477123 -1.000000 0.383593
v 0.486297 -1.000000 0.304896
v 0.489428 -1.000000 0.227149
v 0.486791 -1.000000 0.150328
v 0.478658 -1.000000 0.074408
v 0.465301 -1.000000 -0.000638
v 0.446994 -1.000000 -0.074834
v 0.424009 -1.000000 -0.148206
v 0.396620 -1.000000 -0.220778
v 0.365099 -1.000000 -0.292576
v 0.352794 -1.000000 -0.317858
v 0.339847 -1.000000 -0.342835
v 0.326383 -1.000000 -0.367563
v 0.312529 -1.000000 -0.392097
v 0.298410 -1.000000 -0.416495
v 0.284152 -1.000000 -0.440810
v 0.269880 -1.000000 -0.465098
v 0.255722 -1.000000 -0.489417
v 0.241803 -1.000000 -0.513821
v 0.228725 -1.000000 -0.479568
v 0.215927 -1.000000 -0.446001
v 0.203371 -1.000000 -0.413035
v 0.191023 -1.000000 -0.380585
v 0.178843 -1.000000 -0.348565
v 0.166798 -1.000000 -0.316889
v 0.154850 -1.000000 -0.285471
v 0.142964 -1.000000 -0.254227
v 0.131101 -1.000000 -0.223070
v 0.114962 -1.000000 -0.226404
v 0.114806 -1.000000 -0.309637
v 0.106077 -1.000000 -0.389578
v 0.089481 -1.000000 -0.466516
v 0.065723 -1.000000 -0.540740
v 0.035509 -1.000000 -0.612538
v -0.000458 -1.000000 -0.682199
v -0.041470 -1.000000 -0.750012
v -0.086823 -1.000000 -0.816265
v -0.135811 -1.000000 -0.881248
v -0.135811 -1.000000 -0.881248
v -0.001535 -1.000000 1.315614
v -0.238492 -1.000000 1.294246
v -0.461209 -1.000000 1.233042
v -0.666037 -1.000000 1.135667
v -0.849326 -1.000000 1.005785
v -1.007428 -1.000000 0.847060
v -1.136693 -1.000000 0.663155
v -1.233473 -1.000000 0.457736
v -1.294118 -1.000000 0.234467
v -1.314979 -1.000000 -0.002990
v -1.293570 -1.000000 -0.239728
v -1.232258 -1.000000 -0.462291
v -1.134728 -1.000000 -0.667015
v -1.004665 -1.000000 -0.850237
v -0.845753 -1.000000 -1.008294
v -0.661678 -1.000000 -1.137523
v -0.456123 -1.000000 -1.234262
v -0.232775 -1.000000 -1.294846
v 0.004683 -1.000000 -1.315614
v 0.241193 -1.000000 -1.294030
v 0.463539 -1.000000 -1.232487
v 0.668051 -1.000000 -1.134688
v 0.851057 -1.000000 -1.004337
v 1.008885 -1.000000 -0.845137
v 1.137862 -1.000000 -0.660792
v 1.234318 -1.000000 -0.455004
v 1.294581 -1.000000 -0.231477
v 1.314979 -1.000000 0.006085
v 1.293170 -1.000000 0.242224
v 1.231688 -1.000000 0.464214
v 1.134198 -1.000000 0.668408
v 1.004369 -1.000000 0.851160
v 0.845866 -1.000000 1.008821
v 0.662358 -1.000000 1.137744
v 0.457510 -1.000000 1.234282
v 0.234991 -1.000000 1.294788
v -0.001535 -1.000000 1.315614
v -0.001535 -1.000000 1.315614
vn 0.9346 0.0000 0.3556
vn 0.9332 0.0000 0.3593
vn 0.7052 0.0000 0.7090
vn 0.9346 0.0000 0.3558
vn 0.9339 0.0000 0.3575
vn 0.5749 0.0000 0.8183
vn 0.9385 0.0000 0.3452
vn 0.4263 0.0000 0.9046
vn 0.9467 0.0000 0.3220
vn 0.2624 0.0000 0.9650
vn 0.9578 0.0000 0.2873
vn 0.0877 0.0000 0.9961
vn 0.9707 0.0000 0.2402
vn 0.0000 0.0000 1.0000
vn 0.9837 0.0000 0.1796
vn 0.9945 0.0000 0.1050
vn 0.9997 0.0000 -0.0226
vn -0.2023 0.0000 0.9793
vn 0.9810 0.0000 -0.1940
vn 0.9305 0.0000 -0.3662
vn -1.0000 0.0000 0.0019
vn 0.8441 0.0000 -0.5361
vn -0.9941 0.0000 0.1085
vn 0.7177 0.0000 -0.6964
vn -0.9775 0.0000 0.2109
vn 0.5514 0.0000 -0.8342
vn -0.9524 0.0000 0.3048
vn 0.3548 0.0000 -0.9350
vn -0.9217 0.0000 0.3879
vn 0.1465 0.0000 -0.9892
vn -0.8886 0.0000 0.4588
vn -0.0525 0.0000 -0.9986
vn -0.8557 0.0000 0.5175
vn -0.1954 0.0000 -0.9807
vn -0.8252 0.0000 0.5649
vn -0.3135 0.0000 -0.9496
vn -0.7985 0.0000 0.6020
vn -0.4452 0.0000 -0.8954
vn -0.5817 0.0000 -0.8134
vn -0.0898 0.0000 0.9960
vn -0.7100 0.0000 -0.7042
vn -0.2650 0.0000 0.9643
vn -0.8173 0.0000 -0.5763
vn -0.4294 0.0000 0.9031
vn -0.8966 0.0000 -0.4428
vn -0.5782 0.0000 0.8159
vn -0.9487 0.0000 -0.3161
vn -0.7085 0.0000 0.7057
vn -0.9790 0.0000 -0.2036
vn -0.8181 0.0000 0.5751
vn -0.9933 0.0000 -0.1158
vn -0.9046 0.0000 0.4262
vn -0.9992 0.0000 -0.0402
vn -0.9650 0.0000 0.2621
vn -0.9994 0.0000 0.0343
vn -0.9962 0.0000 0.0875
vn -0.9943 0.0000 0.1065
vn -0.9959 0.0000 -0.0901
vn -0.9845 0.0000 0.1752
vn -0.9641 0.0000 -0.2656
vn -0.9709 0.0000 0.2396
vn -0.9028 0.0000 -0.4301
vn -0.9543 0.0000 0.2989
vn 0.9940 0.0000 -0.1095
vn -0.8154 0.0000 -0.5788
vn -0.9356 0.0000 0.3531
vn 1.0000 0.0000 0.0034
vn -0.7052 0.0000 -0.7090
vn -0.9156 0.0000 0.4020
vn 0.9940 0.0000 0.1094
vn -0.5746 0.0000 -0.8184
vn -0.8992 0.0000 0.4376
vn 0.9791 0.0000 0.2036
vn -0.4258 0.0000 -0.9048
vn -0.8878 0.0000 0.4602
vn 0.9591 0.0000 0.2832
vn -0.2618 0.0000 -0.9651
vn -0.8783 0.0000 0.4782
vn 0.9377 0.0000 0.3474
vn -0.0871 0.0000 -0.9962
vn -0.8708 0.0000 0.4917
vn 0.9180 0.0000 0.3965
vn 0.0909 0.0000 -0.9959
vn -0.8655 0.0000 0.5009
vn 0.9021 0.0000 0.4315
vn 0.2668 0.0000 -0.9638
vn -0.8626 0.0000 0.5058
vn 0.8913 0.0000 0.4534
vn 0.4314 0.0000 -0.9022
vn -0.8622 0.0000 0.5066
vn 0.8835 0.0000 0.4684
vn 0.5802 0.0000 -0.8145
vn -0.8642 0.0000 0.5031
vn 0.8765 0.0000 0.4815
vn 0.7102 0.0000 -0.7040
vn -0.8686 0.0000 0.4955
vn 0.8733 0.0000 0.4872
vn 0.8194 0.0000 -0.5733
vn 0.9342 0.0000 0.3567
vn 0.8741 0.0000 0.4857
vn 0.9055 0.0000 -0.4244
vn 0.9344 0.0000 0.3563
vn 0.8789 0.0000 0.4770
vn 0.9655 0.0000 -0.2603
vn 0.9345 0.0000 0.3559
vn 0.8875 0.0000 0.4608
vn 0.9963 0.0000 -0.0855
vn 0.9346 0.0000 0.3557
vn 0.8995 0.0000 0.4369
vn 0.9958 0.0000 0.0920
vn 0.9347 0.0000 0.3555
vn 0.9143 0.0000 0.4049
vn 0.9637 0.0000 0.2669
vn 0.9347 0.0000 0.3554
vn 0.9312 0.0000 0.3645
vn 0.9024 0.0000 0.4309
vn 0.9366 0.0000 0.3505
vn 0.8152 0.0000 0.5791
vn 0.0000 -1.0000 0.0000
vn -0.0000 1.0000 0.0000
usemtl (null)
s off
f 72//1 193//1 71//1
f 21//2 142//2 20//2
f 117//3 238//3 116//3
f 73//4 194//4 72//4
f 22//5 143//5 21//5
f 118//6 239//6 117//6
f 23//7 144//7 22//7
f 119//8 240//8 118//8
f 24//9 145//9 23//9
f 120//10 241//10 119//10
f 25//11 146//11 24//11
f 121//12 242//12 120//12
f 26//13 147//13 25//13
f 121//14 244//14 243//14
f 27//15 148//15 26//15
f 28//16 149//16 27//16
f 29//17 150//17 28//17
f 74//18 195//18 73//18
f 30//19 151//19 29//19
f 31//20 152//20 30//20
f 75//21 196//21 74//21
f 32//22 153//22 31//22
f 76//23 197//23 75//23
f 33//24 154//24 32//24
f 77//25 198//25 76//25
f 34//26 155//26 33//26
f 78//27 199//27 77//27
f 35//28 156//28 34//28
f 79//29 200//29 78//29
f 36//30 157//30 35//30
f 80//31 201//31 79//31
f 37//32 158//32 36//32
f 81//33 202//33 80//33
f 38//34 159//34 37//34
f 82//35 203//35 81//35
f 39//36 160//36 38//36
f 83//37 204//37 82//37
f 40//38 161//38 39//38
f 83//14 206//14 205//14
f 41//39 162//39 40//39
f 86//40 207//40 85//40
f 42//41 163//41 41//41
f 87//42 208//42 86//42
f 43//43 164//43 42//43
f 88//44 209//44 87//44
f 44//45 165//45 43//45
f 89//46 210//46 88//46
f 45//47 166//47 44//47
f 90//48 211//48 89//48
f 46//49 167//49 45//49
f 91//50 212//50 90//50
f 47//51 168//51 46//51
f 92//52 213//52 91//52
f 48//53 169//53 47//53
f 93//54 214//54 92//54
f 49//55 170//55 48//55
f 94//56 215//56 93//56
f 50//57 171//57 49//57
f 95//58 216//58 94//58
f 51//59 172//59 50//59
f 96//60 217//60 95//60
f 52//61 173//61 51//61
f 97//62 218//62 96//62
f 53//63 174//63 52//63
f 2//64 123//64 1//64
f 98//65 219//65 97//65
f 54//66 175//66 53//66
f 3//67 124//67 2//67
f 99//68 220//68 98//68
f 55//69 176//69 54//69
f 4//70 125//70 3//70
f 100//71 221//71 99//71
f 56//72 177//72 55//72
f 5//73 126//73 4//73
f 101//74 222//74 100//74
f 57//75 178//75 56//75
f 6//76 127//76 5//76
f 102//77 223//77 101//77
f 58//78 179//78 57//78
f 7//79 128//79 6//79
f 103//80 224//80 102//80
f 59//81 180//81 58//81
f 8//82 129//82 7//82
f 104//83 225//83 103//83
f 60//84 181//84 59//84
f 9//85 130//85 8//85
f 105//86 226//86 104//86
f 61//87 182//87 60//87
f 10//88 131//88 9//88
f 106//89 227//89 105//89
f 62//90 183//90 61//90
f 11//91 132//91 10//91
f 107//92 228//92 106//92
f 63//93 184//93 62//93
f 12//94 133//94 11//94
f 108//95 229//95 107//95
f 64//96 185//96 63//96
f 13//97 134//97 12//97
f 109//98 230//98 108//98
f 65//99 186//99 64//99
f 14//100 135//100 13//100
f 110//101 231//101 109//101
f 66//102 187//102 65//102
f 15//103 136//103 14//103
f 111//104 232//104 110//104
f 67//105 188//105 66//105
f 16//106 137//106 15//106
f 112//107 233//107 111//107
f 68//108 189//108 67//108
f 17//109 138//109 16//109
f 113//110 234//110 112//110
f 69//111 190//111 68//111
f 18//112 139//112 17//112
f 114//113 235//113 113//113
f 70//114 191//114 69//114
f 19//115 140//115 18//115
f 115//116 236//116 114//116
f 71//111 192//111 70//111
f 20//117 141//117 19//117
f 116//118 237//118 115//118
f 146//119 147//119 216//119
f 223//119 206//119 124//119
f 197//119 194//119 196//119
f 171//119 172//119 234//119
f 24//120 23//120 95//120
f 49//120 112//120 50//120
f 67//120 77//120 76//120
f 72//1 194//1 193//1
f 21//2 143//2 142//2
f 117//3 239//3 238//3
f 73//4 195//4 194//4
f 22//5 144//5 143//5
f 118//6 240//6 239//6
f 23//7 145//7 144//7
f 119//8 241//8 240//8
f 24//9 146//9 145//9
f 120//10 242//10 241//10
f 25//11 147//11 146//11
f 121//12 243//12 242//12
f 26//13 148//13 147//13
f 121//14 122//14 244//14
f 27//15 149//15 148//15
f 28//16 150//16 149//16
f 29//17 151//17 150//17
f 74//18 196//18 195//18
f 30//19 152//19 151//19
f 31//20 153//20 152//20
f 75//21 197//21 196//21
f 32//22 154//22 153//22
f 76//23 198//23 197//23
f 33//24 155//24 154//24
f 77//25 199//25 198//25
f 34//26 156//26 155//26
f 78//27 200//27 199//27
f 35//28 157//28 156//28
f 79//29 201//29 200//29
f 36//30 158//30 157//30
f 80//31 202//31 201//31
f 37//32 159//32 158//32
f 81//33 203//33 202//33
f 38//34 160//34 159//34
f 82//35 204//35 203//35
f 39//36 161//36 160//36
f 83//37 205//37 204//37
f 40//38 162//38 161//38
f 83//14 84//14 206//14
f 41//39 163//39 162//39
f 86//40 208//40 207//40
f 42//41 164//41 163//41
f 87//42 209//42 208//42
f 43//43 165//43 164//43
f 88//44 210//44 209//44
f 44//45 166//45 165//45
f 89//46 211//46 210//46
f 45//47 167//47 166//47
f 90//48 212//48 211//48
f 46//49 168//49 167//49
f 91//50 213//50 212//50
f 47//51 169//51 168//51
f 92//52 214//52 213//52
f 48//53 170//53 169//53
f 93//54 215//54 214//54
f 49//55 171//55 170//55
f 94//56 216//56 215//56
f 50//57 172//57 171//57
f 95//58 217//58 216//58
f 51//59 173//59 172//59
f 96//60 218//60 217//60
f 52//61 174//61 173//61
f 97//62 219//62 218//62
f 53//63 175//63 174//63
f 2//64 124//64 123//64
f 98//65 220//65 219//65
f 54//66 176//66 175//66
f 3//67 125//67 124//67
f 99//68 221//68 220//68
f 55//69 177//69 176//69
f 4//70 126//70 125//70
f 100//71 222//71 221//71
f 56//72 178//72 177//72
f 5//73 127//73 126//73
f 101//74 223//74 222//74
f 57//75 179//75 178//75
f 6//76 128//76 127//76
f 102//77 224//77 223//77
f 58//78 180//78 179//78
f 7//79 129//79 128//79
f 103//80 225//80 224//80
f 59//81 181//81 180//81
f 8//82 130//82 129//82
f 104//83 226//83 225//83
f 60//84 182//84 181//84
f 9//85 131//85 130//85
f 105//86 227//86 226//86
f 61//87 183//87 182//87
f 10//88 132//88 131//88
f 106//89 228//89 227//89
f 62//90 184//90 183//90
f 11//91 133//91 132//91
f 107//92 229//92 228//92
f 63//93 185//93 184//93
f 12//94 134//94 133//94
f 108//95 230//95 229//95
f 64//96 186//96 185//96
f 13//97 135//97 134//97
f 109//98 231//98 230//98
f 65//99 187//99 186//99
f 14//100 136//100 135//100
f 110//101 232//101 231//101
f 66//102 188//102 187//102
f 15//103 137//103 136//103
f 111//104 233//104 232//104
f 67//105 189//105 188//105
f 16//106 138//106 137//106
f 112//107 234//107 233//107
f 68//108 190//108 189//108
f 17//109 139//109 138//109
f 113//110 235//110 234//110
f 69//111 191//111 190//111
f 18//112 140//112 139//112
f 114//113 236//113 235//113
f 70//114 192//114 191//114
f 19//115 141//115 140//115
f 115//116 237//116 236//116
f 71//111 193//111 192//111
f 20//117 142//117 141//117
f 116//118 238//118 237//118
f 223//119 124//119 222//119
f 124//119 125//119 222//119
f 125//119 126//119 222//119
f 126//119 127//119 222//119
f 222//119 127//119 221//119
f 127//119 128//119 221//119
f 128//119 129//119 221//119
f 129//119 130//119 221//119
f 130//119 131//119 221//119
f 131//119 132//119 220//119
f 132//119 133//119 220//119
f 133//119 134//119 220//119
f 134//119 135//119 220//119
f 135//119 136//119 220//119
f 220//119 221//119 131//119
f 218//119 219//119 140//119
f 219//119 220//119 137//119
f 137//119 220//119 136//119
f 216//119 217//119 146//119
f 217//119 218//119 144//119
f 138//119 219//119 137//119
f 214//119 215//119 150//119
f 215//119 216//119 149//119
f 214//119 151//119 213//119
f 212//119 213//119 152//119
f 212//119 153//119 211//119
f 210//119 211//119 154//119
f 154//119 211//119 153//119
f 208//119 209//119 157//119
f 209//119 210//119 155//119
f 155//119 210//119 154//119
f 157//119 158//119 208//119
f 156//119 157//119 209//119
f 153//119 212//119 152//119
f 151//119 214//119 150//119
f 219//119 138//119 139//119
f 155//119 156//119 209//119
f 219//119 139//119 140//119
f 152//119 213//119 151//119
f 218//119 140//119 141//119
f 150//119 215//119 149//119
f 218//119 141//119 142//119
f 142//119 143//119 218//119
f 218//119 143//119 144//119
f 217//119 144//119 145//119
f 148//119 149//119 216//119
f 147//119 148//119 216//119
f 217//119 145//119 146//119
f 223//119 224//119 206//119
f 227//119 186//119 202//119
f 186//119 187//119 199//119
f 201//119 186//119 200//119
f 186//119 201//119 202//119
f 187//119 188//119 199//119
f 225//119 226//119 206//119
f 226//119 227//119 203//119
f 206//119 224//119 225//119
f 204//119 206//119 226//119
f 200//119 186//119 199//119
f 188//119 189//119 199//119
f 203//119 204//119 226//119
f 202//119 203//119 227//119
f 189//119 190//119 198//119
f 199//119 189//119 198//119
f 191//119 192//119 197//119
f 192//119 193//119 197//119
f 190//119 191//119 198//119
f 198//119 191//119 197//119
f 193//119 194//119 197//119
f 194//119 195//119 196//119
f 208//119 158//119 244//119
f 158//119 159//119 244//119
f 159//119 160//119 242//119
f 244//119 159//119 242//119
f 240//119 241//119 162//119
f 241//119 242//119 160//119
f 240//119 162//119 163//119
f 238//119 239//119 165//119
f 239//119 240//119 164//119
f 164//119 240//119 163//119
f 236//119 237//119 168//119
f 237//119 238//119 167//119
f 165//119 239//119 164//119
f 234//119 235//119 171//119
f 235//119 236//119 170//119
f 232//119 233//119 174//119
f 233//119 234//119 173//119
f 230//119 179//119 180//119
f 230//119 231//119 178//119
f 231//119 232//119 176//119
f 230//119 182//119 183//119
f 228//119 229//119 186//119
f 229//119 230//119 183//119
f 186//119 229//119 185//119
f 186//119 227//119 228//119
f 184//119 185//119 229//119
f 183//119 184//119 229//119
f 182//119 230//119 181//119
f 179//119 230//119 178//119
f 181//119 230//119 180//119
f 237//119 167//119 168//119
f 160//119 161//119 241//119
f 238//119 165//119 166//119
f 161//119 162//119 241//119
f 178//119 231//119 177//119
f 177//119 231//119 176//119
f 238//119 166//119 167//119
f 176//119 232//119 175//119
f 175//119 232//119 174//119
f 236//119 168//119 169//119
f 236//119 169//119 170//119
f 174//119 233//119 173//119
f 235//119 170//119 171//119
f 172//119 173//119 234//119
f 3//120 2//120 100//120
f 2//120 101//120 100//120
f 100//120 99//120 5//120
f 3//120 100//120 4//120
f 99//120 98//120 9//120
f 98//120 97//120 15//120
f 99//120 9//120 8//120
f 97//120 96//120 18//120
f 96//120 95//120 22//120
f 97//120 16//120 15//120
f 95//120 94//120 24//120
f 94//120 93//120 27//120
f 28//120 93//120 92//120
f 92//120 91//120 29//120
f 30//120 91//120 90//120
f 90//120 89//120 31//120
f 32//120 89//120 88//120
f 88//120 87//120 33//120
f 87//120 86//120 35//120
f 86//120 36//120 35//120
f 89//120 32//120 31//120
f 88//120 33//120 32//120
f 93//120 28//120 27//120
f 91//120 30//120 29//120
f 16//120 97//120 17//120
f 98//120 15//120 14//120
f 4//120 100//120 5//120
f 7//120 6//120 99//120
f 6//120 5//120 99//120
f 8//120 7//120 99//120
f 11//120 10//120 98//120
f 10//120 9//120 98//120
f 13//120 12//120 98//120
f 12//120 11//120 98//120
f 14//120 13//120 98//120
f 90//120 31//120 30//120
f 87//120 35//120 34//120
f 87//120 34//120 33//120
f 17//120 97//120 18//120
f 92//120 29//120 28//120
f 18//120 96//120 19//120
f 19//120 96//120 20//120
f 20//120 96//120 21//120
f 21//120 96//120 22//120
f 94//120 27//120 26//120
f 94//120 26//120 25//120
f 23//120 22//120 95//120
f 94//120 25//120 24//120
f 37//120 36//120 120//120
f 36//120 86//120 120//120
f 120//120 119//120 38//120
f 37//120 120//120 38//120
f 119//120 118//120 40//120
f 118//120 117//120 42//120
f 117//120 116//120 43//120
f 116//120 115//120 45//120
f 117//120 43//120 42//120
f 115//120 114//120 46//120
f 114//120 113//120 48//120
f 44//120 116//120 45//120
f 113//120 112//120 49//120
f 112//120 111//120 51//120
f 47//120 114//120 48//120
f 111//120 110//120 52//120
f 110//120 109//120 54//120
f 59//120 108//120 60//120
f 109//120 108//120 56//120
f 108//120 107//120 61//120
f 61//120 107//120 62//120
f 107//120 106//120 64//120
f 106//120 105//120 64//120
f 107//120 64//120 63//120
f 63//120 62//120 107//120
f 61//120 60//120 108//120
f 108//120 59//120 58//120
f 116//120 44//120 43//120
f 114//120 47//120 46//120
f 118//120 42//120 41//120
f 108//120 58//120 57//120
f 39//120 38//120 119//120
f 40//120 39//120 119//120
f 108//120 57//120 56//120
f 41//120 40//120 118//120
f 109//120 56//120 55//120
f 109//120 55//120 54//120
f 45//120 115//120 46//120
f 110//120 54//120 53//120
f 110//120 53//120 52//120
f 48//120 113//120 49//120
f 111//120 52//120 51//120
f 51//120 50//120 112//120
f 65//120 64//120 77//120
f 64//120 105//120 80//120
f 79//120 64//120 80//120
f 105//120 104//120 81//120
f 104//120 103//120 84//120
f 103//120 102//120 84//120
f 102//120 101//120 84//120
f 101//120 2//120 84//120
f 64//120 79//120 78//120
f 66//120 65//120 77//120
f 80//120 105//120 81//120
f 84//120 82//120 104//120
f 82//120 81//120 104//120
f 67//120 66//120 77//120
f 64//120 78//120 77//120
f 68//120 67//120 76//120
f 69//120 68//120 76//120
f 71//120 70//120 75//120
f 70//120 69//120 75//120
f 73//120 72//120 74//120
f 72//120 71//120 75//120
f 75//120 74//120 72//120
f 76//120 75//120 69//120
